<svg id="Layer_1" xmlns="http://www.w3.org/2000/svg" viewBox="0 0 75 50"><style>.st0{fill:#fee5d9}.st1{fill:#fff}.st2{fill:#fee5d9;stroke:#fee5d9;stroke-miterlimit:10}</style><path class="st0" d="M43.4 30.7c12.7-7.3 17.3-10.9 17.5-16.1.1-3.3-1.8-6-5.9-6-2.4-.1-4.5 1-6.8 3.6l-.5-.7c3.5-4.9 8-8.1 13.4-7.9 5.9.1 9.6 3.6 9.4 8.1-.2 6-7.5 9.3-19.7 16l-.1.2h12.4c3.9 0 5.5-1.5 8.5-6.1l.9-1.4 1.1.1-5.7 13.8H43.2l.2-3.6zM11.6 21.3c0-9.5 7.1-17.8 16.4-17.8 8.3 0 13.9 5.6 13.9 13.4 0 9.5-7.1 17.8-16.4 17.8-8.3 0-13.9-5.5-13.9-13.4zm22-9.5c0-4.4-1.6-6.7-4.7-6.7-5.3 0-9.1 13.8-9.1 21.5 0 4.3 1.5 6.6 4.6 6.6 5.5-.1 9.2-13.3 9.2-21.4z"/><path class="st1" d="M50 50.2L0 .2V50z"/><path class="st2" d="M0 .2l50 50"/></svg>