<svg id="Layer_1" xmlns="http://www.w3.org/2000/svg" viewBox="0 0 75 50"><style>.st0{fill:#fee5d9}.st1{fill:#fff}.st2{fill:#fee5d9;stroke:#fee5d9;stroke-miterlimit:10}</style><path class="st0" d="M42.9 34c0-1.7 1.3-3.6 3.6-3.6 3.4 0 4.9 3.9 3.3 7.1.5.3 1.2.6 1.9.6 4.3 0 7.5-4.5 7.5-9.1 0-4.3-2.5-7-6.5-7-1.2 0-2.4.3-3.7.7l-.4-.9c8-3.6 11.8-5.4 11.8-10 0-2.9-2.2-4.8-5.1-4.8-2.5 0-4.8 1.8-6.3 3.7l-.4-.7c2.9-4.2 6.8-7.4 11.6-7.4 4.6 0 8.1 2.7 8.1 6.6 0 4.3-4.2 6.7-10.6 9.1v.2c.4-.1 1-.2 1.4-.2 5 0 8.1 3.9 8.1 8 0 7-8 12.9-15.3 12.9-4.9.1-9-1.6-9-5.2zM11.6 21.3c0-9.5 7.1-17.8 16.4-17.8 8.3 0 13.9 5.6 13.9 13.4 0 9.5-7.1 17.8-16.4 17.8-8.3 0-13.9-5.5-13.9-13.4zm22-9.5c0-4.4-1.6-6.7-4.7-6.7-5.3 0-9.1 13.8-9.1 21.5 0 4.3 1.5 6.6 4.6 6.6 5.5-.1 9.2-13.3 9.2-21.4z"/><path class="st1" d="M50 50.2L0 .2V50z"/><path class="st2" d="M0 .2l50 50"/></svg>