<svg id="Layer_1" xmlns="http://www.w3.org/2000/svg" viewBox="0 0 75 50"><style>.st0{fill:#fee5d9}.st1{fill:#fff}.st2{fill:#fee5d9;stroke:#fee5d9;stroke-miterlimit:10}</style><path class="st0" d="M11.6 21.3c0-9.5 7.1-17.8 16.4-17.8 8.3 0 13.9 5.6 13.9 13.4 0 9.5-7.1 17.8-16.4 17.8-8.3 0-13.9-5.5-13.9-13.4zm22-9.5c0-4.4-1.6-6.7-4.7-6.7-5.3 0-9.1 13.8-9.1 21.5 0 4.3 1.5 6.6 4.6 6.6 5.5-.1 9.2-13.3 9.2-21.4z"/><path class="st1" d="M50 50.2L0 .2V50z"/><path class="st2" d="M0 .2l50 50"/><path class="st0" d="M58.5 28.5H44.6v-1.3L66.8 2.6l4 .4-4 21.2 6 .1-1.3 4.2H66l-2 10.1h-7.3l1.8-10.1zm.9-4.3l2.8-14.4H62L49 24.2h10.4z"/></svg>