<svg id="Layer_1" xmlns="http://www.w3.org/2000/svg" viewBox="0 0 75 50"><style>.st0{fill:#fee5d9}.st1{fill:#fff}.st2{fill:#fee5d9;stroke:#fee5d9;stroke-miterlimit:10}</style><path class="st0" d="M41.6 33.9c0-2.1 1.6-4.1 3.8-4.1 3.4 0 4.7 3.8 2.5 6.4.6.6 1.8 1.3 3.3 1.3 3.7 0 6.7-3.6 6.7-8 0-5-4.8-8.4-11.4-9.4l7.6-17h14.7l-1.2 6.5h-15l-2 4.4c9.2 1.3 14.1 6 14.1 12 0 6.9-7.4 12.8-14.8 12.8-4.7 0-8.3-2-8.3-4.9zM11.6 21.3c0-9.5 7.1-17.8 16.4-17.8 8.3 0 13.9 5.6 13.9 13.4 0 9.5-7.1 17.8-16.4 17.8-8.3 0-13.9-5.5-13.9-13.4zm22-9.5c0-4.4-1.6-6.7-4.7-6.7-5.3 0-9.1 13.8-9.1 21.5 0 4.3 1.5 6.6 4.6 6.6 5.5-.1 9.2-13.3 9.2-21.4z"/><path class="st1" d="M50 50.2L0 .2V50z"/><path class="st2" d="M0 .2l50 50"/></svg>