<svg id="Layer_1" xmlns="http://www.w3.org/2000/svg" viewBox="0 0 75 50"><style>.st0{fill:#fee5d9}.st1{fill:none;stroke:#fee5d9;stroke-miterlimit:10}</style><path class="st0" d="M45 22.9C45 11.2 57-.3 74.5 0l.5 1c-9.8.7-16.5 6.4-19.7 13.6l.2.1c2.4-1.6 4.8-2.7 7.2-2.7 4.8 0 8.2 4 8.2 9.1 0 7.4-6.4 13.7-14 13.7-7.4-.1-11.9-4.9-11.9-11.9zm17.7-2.2c0-4.2-1.8-6.2-4.6-6.2-1.1 0-2.2.5-3 1.3-1.6 3.5-2.5 7.7-2.5 11.5 0 3.9 1.2 6.2 3.6 6.2 3.9 0 6.5-7.3 6.5-12.8zM20.4 20.6c1.3-7.3 4.4-15.5 8.5-15.5 3.1 0 4.7 2.3 4.7 6.7 0 5.4-1.6 13.1-4.4 17.6l3.5 3.5c5.5-2.9 9.2-9.1 9.2-16 0-7.8-5.6-13.4-13.9-13.4-6.6 0-12.1 4.2-14.7 10l7.1 7.1z"/><path class="st1" d="M0 .2l50 50"/></svg>