<?xml version="1.0" encoding="utf-8"?>
<!-- Generator: Adobe Illustrator 21.0.0, SVG Export Plug-In . SVG Version: 6.00 Build 0)  -->
<svg version="1.1" id="Isolation_Mode" xmlns="http://www.w3.org/2000/svg" xmlns:xlink="http://www.w3.org/1999/xlink" x="0px"
	 y="0px" viewBox="0 0 1360 1860" style="enable-background:new 0 0 1360 1860;" xml:space="preserve">
<style type="text/css">
	.st0{fill:#FFF7EC;}
</style>
<g>
	<rect x="163.5" y="1456.6" class="st0" width="993.7" height="243.4"/>
	<path class="st0" d="M1211.9,998.2c0,197.4-159,330.2-426.3,330.2h-622V140.2h587.1c256.8,0,408.9,122.3,408.9,316.3
		c0,110.1-61.2,223.7-166,260.3C1138.5,748.3,1211.9,870.6,1211.9,998.2z M458.8,624.2h246.4c110.1,0,171.2-50.7,171.2-127.6
		c0-75.1-57.7-115.3-171.2-115.3H458.8V624.2z M747.1,1083.8c120.6,0,174.7-54.2,174.7-124.1c0-73.4-61.1-110.1-169.5-110.1H458.8
		v234.1H747.1z"/>
</g>
</svg>
